<svg xmlns="http://www.w3.org/2000/svg" width="512" height="512" viewBox="0 0 512 512"><defs><linearGradient id="g" x1="0" y1="0" x2="0" y2="1"><stop offset="0" stop-color="#14213d"/><stop offset="0.6" stop-color="#6d2e63"/><stop offset="1" stop-color="#f4a259"/></linearGradient></defs><rect width="512" height="512" rx="110" fill="url(#g)"/><circle cx="390" cy="130" r="46" fill="#fff3d6"/><polygon points="112,400 256,470 256,500 112,430" fill="#cfa860"/><polygon points="256,470 400,400 400,430 256,500" fill="#a97f3d"/><polygon points="256,330 400,400 256,470 112,400" fill="#1fb5ad"/><path d="M250 400 Q244 320 262 245" stroke="#7a4e2d" stroke-width="14" fill="none" stroke-linecap="round"/><path d="M262 245 Q320 190 390 240 Q320 222 262 245Z" fill="#2e9e6b"/><path d="M262 245 Q205 190 135 240 Q205 222 262 245Z" fill="#3fbf82"/><path d="M262 245 Q300 160 350 150 Q310 190 262 245Z" fill="#3fbf82"/><path d="M262 245 Q224 160 174 150 Q214 190 262 245Z" fill="#2e9e6b"/></svg>